<?xml version="1.0" standalone="no"?>
<!DOCTYPE svg PUBLIC "-//W3C//DTD SVG 20010904//EN"
 "http://www.w3.org/TR/2001/REC-SVG-20010904/DTD/svg10.dtd">
<svg version="1.0" xmlns="http://www.w3.org/2000/svg"
 width="194.000000pt" height="194.000000pt" viewBox="0 0 194.000000 194.000000"
 preserveAspectRatio="xMidYMid meet">
<metadata>
Created by potrace 1.11, written by Peter Selinger 2001-2013
</metadata>
<g transform="translate(0.000000,194.000000) scale(0.100000,-0.100000)"
fill="#000000" stroke="none">
<path d="M810 1926 c-331 -63 -589 -262 -723 -557 -63 -140 -87 -260 -82 -423
5 -189 42 -319 139 -481 143 -239 397 -408 681 -454 82 -13 337 -3 365 14 3 2
17 6 31 9 32 7 93 29 160 59 186 82 374 269 463 458 35 74 74 199 83 262 10
68 10 250 1 307 -51 307 -241 570 -513 710 -73 37 -195 80 -270 95 -61 12
-271 13 -335 1z"/>
</g>
</svg>
